# AST/ASF file generated using VICON BodyLanguage
# -----------------------------------------------
:version 1.10
:name VICON
:units
  mass 1.0
  length 0.45
  angle deg
:documentation
   .ast/.asf automatically generated from VICON data using
   VICON BodyBuilder and BodyLanguage model FoxedUp or BRILLIANT.MOD
:root
   order TX TY TZ RX RY RZ
   axis XYZ
   position 0 0 0  
   orientation 0 0 0 
:bonedata
  begin
     id 1 
     name lhipjoint
     direction 0.621036 -0.695554 0.361275 
     length 2.46325 
     axis 0 0 0  XYZ
  end
  begin
     id 2 
     name lfemur
     direction 0.34202 -0.939693 0  
     length 6.54784  
     axis 0 0 20  XYZ
    dof rx ry rz
    limits (-160.0 20.0)
           (-70.0 70.0)
           (-60.0 70.0)
  end
  begin
     id 3 
     name ltibia
     direction 0.34202 -0.939693 0   
     length 7.84737   
     axis 0 0 20   XYZ
    dof rx
    limits (-10.0 170.0)
  end
  begin
     id 4 
     name lfoot
     direction 0.0790693 -0.217241 0.97291   
     length 2.59747   
     axis -90 7.62852e-016 20   XYZ
    dof rx rz
    limits (-45.0 90.0)
           (-70.0 20.0)
  end
  begin
     id 5 
     name ltoes
     direction 1.53572e-011 -4.21898e-011 1   
     length 1.29919   
     axis -90 7.62852e-016 20   XYZ
    dof rx
    limits (-90.0 20.0)
  end
  begin
     id 6 
     name rhipjoint
     direction -0.602353 -0.708375 0.367935   
     length 2.41867  
     axis 0 0 0  XYZ 
  end
  begin
     id 7 
     name rfemur
     direction -0.34202 -0.939693 0   
     length 6.92065   
     axis 0 0 -20   XYZ
    dof rx ry rz
    limits (-160.0 20.0)
           (-70.0 70.0)
           (-70.0 60.0)
  end
  begin
     id 8 
     name rtibia
     direction -0.34202 -0.939693 0   
     length 7.88883   
     axis 0 0 -20   XYZ
    dof rx
    limits (-10.0 170.0)
 end
 begin
     id 9 
     name rfoot
     direction -0.0768692 -0.211196 0.974416   
     length 2.43714  
     axis -90 -7.62852e-016 -20   XYZ
    dof rx rz
    limits (-45.0 90.0)
           (-20.0 70.0)
  end
  begin
     id 10 
     name rtoes
     direction -1.53575e-011 -4.21933e-011 1   
     length 1.22113   
     axis -90 -7.62852e-016 -20   XYZ
    dof rx
    limits (-90.0 20.0)
  end
  begin
     id 11 
     name lowerback
     direction 0.0197937 0.98943 -0.143655   
     length 2.16931   
     axis 0 0 0   XYZ
    dof rx ry rz
    limits (-20.0 45.0)
           (-30.0 30.0)
           (-30.0 30.0)
  end
  begin
     id 12 
     name upperback
     direction -0.00183968 0.999975 0.00684288   
     length 2.17221   
     axis 0 0 0   XYZ
    dof rx ry rz
    limits (-20.0 45.0)
           (-30.0 30.0)
           (-30.0 30.0)
  end
  begin
     id 13 
     name thorax
     direction -0.00950244 0.997208 0.0740685   
     length 2.22549   
     axis 0 0 0   XYZ
    dof rx ry rz
    limits (-20.0 45.0)
           (-30.0 30.0)
           (-30.0 30.0)
  end
  begin
     id 14 
     name lowerneck
     direction 0.0218238 0.996215 0.0841425   
     length 1.77269   
     axis 0 0 0   XYZ
    dof rx ry rz
    limits (-20.0 45.0)
           (-30.0 30.0)
           (-30.0 30.0)
  end
  begin
     id 15 
     name upperneck
     direction -0.00430652 0.994214 -0.107332   
     length 1.76534   
     axis 0 0 0   XYZ
    dof rx ry rz
    limits (-20.0 45.0)
           (-30.0 30.0)
           (-30.0 30.0)
  end
  begin
     id 16
     name head
     direction -0.00328946 0.998959 -0.0454998  
     length 1.82634  
     axis 0 0 0   XYZ
    dof rx ry rz
    limits (-20.0 45.0)
           (-30.0 30.0)
           (-30.0 30.0)
  end
  begin
     id 17 
     name lclavicle
     direction 0.970962 0.239191 0.00450212  
     length 3.84872  
     axis 0 0 0   XYZ
    dof ry rz
    limits (-20.0 10.0)
           (0.0 20.0)
  end
  begin
     id 18 
     name lhumerus
     direction 1 -4.48966e-011 5.74696e-028   
     length 5.22771   
     axis 180 -30 -90   XYZ
    dof rx ry rz
    limits (-60.0 90.0)
           (-90.0 90.0)
           (-90.0 90.0)
  end
  begin
     id 19
     name lradius
     direction 1 -4.4896e-011 4.25109e-027   
     length 3.45251   
     axis 180 -30 -90   XYZ
    dof rx
    limits (-10.0 170.0)
  end
  begin
     id 20
     name lwrist
     direction 1 -4.48971e-011 1.15382e-027   
     length 1.72626   
     axis -5.52449e-016 90 90   XYZ
    dof ry
    limits (-180.0 0.0)
 end
  begin
     id 21 
     name lhand
     direction 1 -4.49034e-011 2.30765e-027   
     length 0.552119   
     axis -1.47248e-015 90 90   XYZ
    dof rx rz
    limits (-90.0 90.0)
           (-45.0 45.0)
  end
  begin
     id 22 
     name lfingers
     direction 1 -4.48951e-011 4.61529e-027   
     length 0.445133   
     axis -2.94495e-015 90 90   XYZ
    dof rx
    limits (0.0 90.0)
  end
  begin
     id 23
     name lthumb
     direction 0.707107 -6.34991e-011 0.707107   
     length 0.639124   
     axis -90 45 2.85299e-015   XYZ
    dof rx rz
    limits (-45.0 45.0)
           (-45.0 45.0)
  end
  begin
     id 24 
     name rclavicle
     direction -0.97424 0.222511 -0.0366699   
     length 3.73439  
     axis 0 0 0   XYZ 
    dof ry rz
    limits (-10.0 20.0)
           (-20.0 0.0)
  end
  begin
     id 25 
     name rhumerus
     direction -1 -4.48956e-011 -4.97258e-028  
     length 5.2398   
     axis 180 30 90   XYZ
    dof rx ry rz
    limits (-90.0 60.0)
           (-90.0 90.0)
           (-90.0 90.0)
  end
  begin
     id 26 
     name rradius
     direction -1 -4.4897e-011 -1.72611e-027   
     length 3.48042   
     axis 180 30 90   XYZ
    dof rx
    limits (-10.0 170.0)
  end
  begin
     id 27 
     name rwrist
     direction -1 -4.48976e-011 1.15382e-027   
     length 1.74021   
     axis -5.52449e-016 -90 -90   XYZ
    dof ry
    limits (-180.0 0.0)
  end
  begin
     id 28
     name rhand
     direction -1 -4.48963e-011 2.30765e-027   
     length 0.618713   
     axis -1.47248e-015 -90 -90   XYZ
    dof rx rz
    limits (-90.0 90.0)
           (-45.0 45.0)
  end
  begin
     id 29
     name rfingers
     direction -1 -4.4888e-011 4.61529e-027   
     length 0.498823   
     axis -2.94495e-015 -90 -90   XYZ
    dof rx
    limits (0.0 90.0)
  end
  begin
     id 30
     name rthumb
     direction -0.707107 -6.34968e-011 0.707107   
     length 0.716213   
     axis -90 -45 -2.85299e-015   XYZ
    dof rx rz
    limits (-45.0 45.0)
           (-45.0 45.0)
  end
:hierarchy
  begin
    root lhipjoint rhipjoint lowerback
    lhipjoint lfemur
    lfemur ltibia
    ltibia lfoot
    lfoot ltoes
    rhipjoint rfemur
    rfemur rtibia
    rtibia rfoot
    rfoot rtoes
    lowerback upperback
    upperback thorax
    thorax lowerneck lclavicle rclavicle
    lowerneck upperneck
    upperneck head
    lclavicle lhumerus
    lhumerus lradius
    lradius lwrist
    lwrist lhand lthumb
    lhand lfingers
    rclavicle rhumerus
    rhumerus rradius
    rradius rwrist
    rwrist rhand rthumb
    rhand rfingers
  end

#!OML:ASF G:\JayActor3\Patient Classification 1\Patient 1\Session 5\male.ASF
:FULLY-SPECIFIED
:DEGREES
360
root 45.4676 15.8919 -4.6999 12.7636 -59.9946 -6.27774
lowerback 0.857743 -1.99797 2.097
upperback 0.125089 -2.64412 0.241226
thorax -0.435681 -1.32546 -0.89239
lowerneck -2.8657 0.266006 3.02905
upperneck 6.13255 0.145128 0.411175
head 2.42946 0.142885 -0.384091
rclavicle -2.48481e-015 -1.98785e-015
rhumerus -32.4741 -21.5817 -77.3608
rradius 16.6396
rwrist 22.7811
rhand -15.625 -6.94783
rfingers 7.12502
rthumb 10.5619 -36.6624
lclavicle -2.48481e-015 -1.98785e-015
lhumerus -31.3559 30.9382 73.9745
lradius 9.53086
lwrist -8.02414
lhand -18.9229 10.5212
lfingers 7.12502
lthumb 7.37958 40.3725
rfemur -24.9056 18.8471 25.9345
rtibia 46.9941
rfoot -33.1583 -8.28056
rtoes -14.6493
lfemur 11.8242 10.0297 -21.501
ltibia 18.5104
lfoot -13.2123 5.73567
ltoes -25.1411
361
root 45.3317 15.921 -4.60497 12.6921 -59.38 -6.34629
lowerback 0.851894 -2.05815 2.33232
upperback 0.182819 -2.72331 0.276997
thorax -0.384949 -1.36451 -0.987366
lowerneck -2.84767 0.144772 2.89969
upperneck 6.11119 -0.0130928 0.47876
head 2.41615 0.0629679 -0.344986
rclavicle 3.24019e-014 -1.19271e-014
rhumerus -32.5933 -21.9785 -77.0635
rradius 16.3875
rwrist 23.0582
rhand -15.3506 -6.96993
rfingers 7.12502
rthumb 10.8266 -36.6709
lclavicle 3.24019e-014 -1.19271e-014
lhumerus -31.4271 30.7376 74.0051
lradius 9.59907
lwrist -7.94082
lhand -18.6655 10.456
lfingers 7.12502
lthumb 7.62798 40.2984
rfemur -23.0255 19.1609 26.3525
rtibia 45.2993
rfoot -33.3899 -8.49606
rtoes -13.0341
lfemur 9.41895 10.4501 -20.922
ltibia 23.7134
lfoot -11.983 5.11899
ltoes -25.862
362
root 45.1958 15.9493 -4.51209 12.7442 -58.6974 -6.53116
lowerback 0.860302 -2.11462 2.62784
upperback 0.240547 -2.79685 0.332303
thorax -0.344381 -1.40074 -1.0954
lowerneck -2.85671 0.014636 2.7703
upperneck 6.05718 -0.184557 0.565874
head 2.39718 -0.0231502 -0.300038
rclavicle -7.61842e-014 4.37326e-015
rhumerus -32.6876 -22.3311 -76.8184
rradius 16.1509
rwrist 23.3272
rhand -15.1277 -7.01947
rfingers 7.12502
rthumb 11.0416 -36.7091
lclavicle -7.61842e-014 4.37326e-015
lhumerus -31.4203 30.4873 74.0895
lradius 9.64037
lwrist -7.82314
lhand -18.4154 10.4863
lfingers 7.12502
lthumb 7.86941 40.3199
rfemur -21.1479 19.3829 26.8661
rtibia 43.6157
rfoot -33.5953 -8.8237
rtoes -11.4037
lfemur 6.79195 10.9135 -20.2187
ltibia 29.099
lfoot -10.1305 4.53119
ltoes -25.9599
363
root 45.0611 15.977 -4.42062 12.9422 -57.9658 -6.86823
lowerback 0.912442 -2.15945 3.01678
upperback 0.293986 -2.85268 0.406268
thorax -0.336073 -1.42847 -1.23465
lowerneck -2.87937 -0.12552 2.63801
upperneck 5.96027 -0.370905 0.688612
head 2.36683 -0.116068 -0.243671
rclavicle -2.66868e-014 9.93923e-015
rhumerus -32.7659 -22.6378 -76.6265
rradius 15.9376
rwrist 23.6322
rhand -14.8557 -7.11509
rfingers 7.12502
rthumb 11.3039 -36.7905
lclavicle -2.66868e-014 9.93923e-015
lhumerus -31.3335 30.1854 74.2292
lradius 9.65451
lwrist -7.66895
lhand -18.2248 10.6063
lfingers 7.12502
lthumb 8.05338 40.4328
rfemur -19.309 19.4636 27.4781
rtibia 41.9162
rfoot -33.7123 -9.20746
rtoes -9.84935
lfemur 3.94389 11.3524 -19.4051
ltibia 34.6371
lfoot -7.63678 4.01531
ltoes -25.3993
364
root 44.9289 16.0037 -4.32944 13.3008 -57.2038 -7.38938
lowerback 1.02687 -2.18739 3.52203
upperback 0.344889 -2.88214 0.507504
thorax -0.368755 -1.44366 -1.40833
lowerneck -2.90283 -0.280515 2.5027
upperneck 5.80385 -0.576813 0.834169
head 2.31745 -0.218705 -0.18002
rclavicle -1.53064e-014 1.03368e-014
rhumerus -32.8182 -22.899 -76.475
rradius 15.7435
rwrist 24.0028
rhand -14.5716 -7.22578
rfingers 7.12502
rthumb 11.578 -36.886
lclavicle -1.53064e-014 1.03368e-014
lhumerus -31.1796 29.8403 74.4267
lradius 9.65878
lwrist -7.45394
lhand -18.1397 10.7942
lfingers 7.12502
lthumb 8.1355 40.6176
rfemur -17.5283 19.3522 28.19
rtibia 40.1718
rfoot -33.6697 -9.59073
rtoes -8.46
lfemur 0.907786 11.6859 -18.4945
ltibia 40.2591
lfoot -4.57096 3.58306
ltoes -23.8514
365
root 44.7998 16.0285 -4.23735 13.7981 -56.4256 -8.0906
lowerback 1.21989 -2.19992 4.15465
upperback 0.392541 -2.88467 0.634165
thorax -0.452462 -1.44657 -1.6237
lowerneck -2.90862 -0.452136 2.35714
upperneck 5.58479 -0.803841 1.00745
head 2.24499 -0.332073 -0.106269
rclavicle 4.5969e-014 -3.57812e-015
rhumerus -32.848 -23.1467 -76.3413
rradius 15.5515
rwrist 24.49
rhand -14.2668 -7.32159
rfingers 7.12502
rthumb 11.8718 -36.965
lclavicle 4.5969e-014 -3.57812e-015
lhumerus -30.9933 29.4612 74.6624
lradius 9.67342
lwrist -7.13206
lhand -18.1949 11.0022
lfingers 7.12502
lthumb 8.08222 40.8276
rfemur -15.8011 19.0008 28.9896
rtibia 38.3675
rfoot -33.4275 -9.91676
rtoes -7.22122
lfemur -2.26158 11.8726 -17.5039
ltibia 45.8703
lfoot -1.10599 3.25765
ltoes -21.3892
366
root 44.6735 16.049 -4.1439 14.4238 -55.6497 -8.98172
lowerback 1.48767 -2.19579 4.91123
upperback 0.443827 -2.85659 0.794674
thorax -0.576396 -1.43559 -1.87075
lowerneck -2.88568 -0.644294 2.19732
upperneck 5.30263 -1.05577 1.19642
head 2.14776 -0.458626 -0.0255635
rclavicle 4.73604e-014 6.75868e-015
rhumerus -32.8486 -23.3653 -76.2227
rradius 15.3697
rwrist 25.0591
rhand -13.9607 -7.3938
rfingers 7.12502
rthumb 12.167 -37.02
lclavicle 4.73604e-014 6.75868e-015
lhumerus -30.7965 29.0659 74.9343
lradius 9.70745
lwrist -6.65957
lhand -18.4798 11.2845
lfingers 7.12502
lthumb 7.80723 41.1204
rfemur -14.0971 18.4014 29.881
rtibia 36.502
rfoot -32.9871 -10.1712
rtoes -6.12557
lfemur -5.49777 11.9352 -16.4218
ltibia 51.3676
lfoot 2.29826 2.81486
ltoes -18.2514
